HIERARCHY
ROOT joint_Root
{
	OFFSET 0.0 0.0 0.0
	CHANNELS 6 Xposition Yposition Zposition Zrotation Xrotation Yrotation 
	JOINT Hips
	{
		OFFSET 4.5925 91.4895 -427.239
		CHANNELS 6 Xposition Yposition Zposition Zrotation Xrotation Yrotation 
		JOINT Spine
		{
			OFFSET 15.7357 0.0 0.0
			CHANNELS 6 Xposition Yposition Zposition Zrotation Xrotation Yrotation 
			JOINT Chest
			{
				OFFSET 8.98455 -0.406207 0.0
				CHANNELS 6 Xposition Yposition Zposition Zrotation Xrotation Yrotation 
				JOINT Neck
				{
					OFFSET 16.3773 0.0 0.0
					CHANNELS 6 Xposition Yposition Zposition Zrotation Xrotation Yrotation 
					JOINT Head
					{
						OFFSET 6.45672 0.0 0.0
						CHANNELS 6 Xposition Yposition Zposition Zrotation Xrotation Yrotation 
						End Site
						{
							OFFSET 0.0 0.0 0.0
						}
					}
				}
				JOINT Shoulder_L
				{
					OFFSET 12.9942 -0.242716 4.98039
					CHANNELS 6 Xposition Yposition Zposition Zrotation Xrotation Yrotation 
					JOINT UpperArm_L
					{
						OFFSET 5.34809 0.0 0.0
						CHANNELS 6 Xposition Yposition Zposition Zrotation Xrotation Yrotation 
						JOINT LowerArm_L
						{
							OFFSET 24.3286 1.87007e-05 0.0
							CHANNELS 6 Xposition Yposition Zposition Zrotation Xrotation Yrotation 
							JOINT Hand_L
							{
								OFFSET 22.2916 0.0 0.0
								CHANNELS 6 Xposition Yposition Zposition Zrotation Xrotation Yrotation 
								End Site
								{
									OFFSET 0.0 0.0 0.0
								}
							}
						}
					}
				}
				JOINT Shoulder_R
				{
					OFFSET 12.9945 -0.242716 -4.98039
					CHANNELS 6 Xposition Yposition Zposition Zrotation Xrotation Yrotation 
					JOINT UpperArm_R
					{
						OFFSET -5.34813 0.0 0.0
						CHANNELS 6 Xposition Yposition Zposition Zrotation Xrotation Yrotation 
						JOINT LowerArm_R
						{
							OFFSET -24.3289 0.000322201 0.0
							CHANNELS 6 Xposition Yposition Zposition Zrotation Xrotation Yrotation 
							JOINT Hand_R
							{
								OFFSET -22.2915 -0.000108084 0.0
								CHANNELS 6 Xposition Yposition Zposition Zrotation Xrotation Yrotation 
								End Site
								{
									OFFSET 0.0 0.0 0.0
								}
							}
						}
					}
				}
			}
		}
		JOINT UpperLeg_L
		{
			OFFSET -2.19248 -6.46944 0.0
			CHANNELS 6 Xposition Yposition Zposition Zrotation Xrotation Yrotation 
			JOINT LowerLeg_L
			{
				OFFSET 39.0811 0.0 -1.23785e-05
				CHANNELS 6 Xposition Yposition Zposition Zrotation Xrotation Yrotation 
				JOINT Foot_L
				{
					OFFSET 40.9854 0.0 -1.26872e-05
					CHANNELS 6 Xposition Yposition Zposition Zrotation Xrotation Yrotation 
					JOINT Toes_L
					{
						OFFSET 11.7543 0.0 0.0
						CHANNELS 6 Xposition Yposition Zposition Zrotation Xrotation Yrotation 
						End Site
						{
							OFFSET 0.0 0.0 0.0
						}
					}
				}
			}
		}
		JOINT UpperLeg_R
		{
			OFFSET -2.19251 6.46944 0.0
			CHANNELS 6 Xposition Yposition Zposition Zrotation Xrotation Yrotation 
			JOINT LowerLeg_R
			{
				OFFSET -39.0811 -0.00228153 -0.0401928
				CHANNELS 6 Xposition Yposition Zposition Zrotation Xrotation Yrotation 
				JOINT Foot_R
				{
					OFFSET -40.9854 0.0 0.0
					CHANNELS 6 Xposition Yposition Zposition Zrotation Xrotation Yrotation 
					JOINT Toes_R
					{
						OFFSET -11.7543 0.0 0.0
						CHANNELS 6 Xposition Yposition Zposition Zrotation Xrotation Yrotation 
						End Site
						{
							OFFSET 0.0 0.0 0.0
						}
					}
				}
			}
		}
	}
}
MOTION
Frames:	5
Frame Time:	0.0333333
0.000000 0.000000 0.000000 0.000000 0.000000 -0.000000 -3.726010 82.338900 -428.991000 83.654100 -2.371570 -15.966600 15.735700 0.000005 -0.000001 80.330200 79.994100 -75.011000 8.984550 -0.406207 -0.000000 12.143700 -3.127850 10.971700 16.377300 -0.000001 -0.000001 -3.505500 3.545560 -1.868250 6.456720 -0.000001 -0.000000 -8.709470 6.112820 -3.491780 12.994200 -0.242716 4.980390 -89.993300 -0.027142 -75.459300 5.348090 -0.000007 -0.000001 -67.191200 29.903000 -9.976030 24.328600 0.000019 0.000005 10.291100 5.710690 -61.416100 22.291600 -0.000001 0.000005 4.554350 5.433020 -4.040840 12.994500 -0.242716 -4.980390 88.031600 12.567000 -81.022000 -5.348130 -0.000001 -0.000004 -53.759000 15.416600 0.396295 -24.328900 0.000322 -0.000009 -12.669500 -3.361170 -75.371800 -22.291500 -0.000108 -0.000004 18.848300 5.633280 -13.557600 -2.192480 -6.469440 -0.000000 -172.409000 -7.265230 -16.557400 39.081100 -0.000007 -0.000012 0.339452 0.124088 110.078000 40.985400 -0.000006 -0.000013 -8.408890 1.926850 -2.519320 11.754300 -0.000000 0.000003 -0.000964 -0.014896 -17.182600 -2.192510 6.469440 -0.000001 -167.757000 10.088300 136.928000 -39.081100 -0.002282 -0.040193 -0.183863 0.109550 59.645900 -40.985400 0.000008 0.000006 4.064620 -0.361064 -83.291500 -11.754300 -0.000006 -0.000006 -0.006059 -0.071372 -19.477900
0.000000 0.000000 0.000000 0.000000 0.000000 -0.000000 -4.523700 80.040900 -422.354000 82.430400 -5.099420 -13.982400 15.735700 0.000005 -0.000001 86.688300 79.524500 -81.542800 8.984550 -0.406207 -0.000000 13.215600 -0.952548 10.402800 16.377300 -0.000001 -0.000001 -3.537640 3.861880 -1.265420 6.456720 -0.000001 -0.000000 -7.330860 6.360280 -4.874810 12.994200 -0.242716 4.980390 -90.150100 0.532534 -74.251400 5.348090 -0.000007 -0.000001 -65.729200 32.349600 -3.549950 24.328600 0.000019 0.000005 13.642600 21.453200 -33.739300 22.291600 -0.000001 0.000005 -0.325249 5.459750 -5.276050 12.994500 -0.242716 -4.980390 88.506500 11.741500 -82.704100 -5.348130 -0.000001 -0.000004 -53.779400 19.022700 -24.900400 -24.328900 0.000322 -0.000009 -12.322000 -1.764340 -81.990100 -22.291500 -0.000108 -0.000004 17.382400 5.636800 -13.852800 -2.192480 -6.469440 -0.000000 -172.574000 -6.177100 -32.762700 39.081100 -0.000007 -0.000012 -0.076896 -0.062365 129.054000 40.985400 -0.000006 -0.000013 -12.108600 5.538480 7.760740 11.754300 -0.000000 0.000003 -0.000314 -0.005125 -16.785600 -2.192510 6.469440 -0.000001 -168.190000 8.812790 143.077000 -39.081100 -0.002282 -0.040193 -0.069324 0.035743 63.756000 -40.985400 0.000008 0.000006 4.132920 -0.112934 -90.885200 -11.754300 -0.000006 -0.000006 -0.005710 -0.068182 -19.347800
0.000000 0.000000 0.000000 0.000000 0.000000 -0.000000 -4.644830 78.838100 -414.743000 83.434800 -8.886390 -12.837800 15.735700 0.000005 -0.000001 95.949900 79.401200 -91.941600 8.984550 -0.406207 -0.000000 13.254300 2.366230 7.743300 16.377300 -0.000001 -0.000001 -3.442130 2.828470 -0.075742 6.456720 -0.000001 -0.000000 -6.702100 4.782250 -5.023800 12.994200 -0.242716 4.980390 -89.865100 -0.448287 -73.288700 5.348090 -0.000007 -0.000001 -63.835500 29.278400 9.018090 24.328600 0.000019 0.000005 31.282300 45.721600 -40.312600 22.291600 -0.000001 0.000005 -12.506800 5.536210 -8.081170 12.994500 -0.242716 -4.980390 89.554300 5.763280 -85.593100 -5.348130 -0.000001 -0.000004 -56.154300 17.690000 -46.763100 -24.328900 0.000322 -0.000009 -3.864660 0.051972 -90.930900 -22.291500 -0.000108 -0.000004 14.410600 5.625090 -12.964100 -2.192480 -6.469440 -0.000000 -174.929000 -5.414180 -48.765600 39.081100 -0.000007 -0.000012 -0.391559 -0.431966 137.809000 40.985400 -0.000006 -0.000013 -14.460900 8.936740 11.725300 11.754300 -0.000000 0.000003 0.000224 0.003852 -16.421100 -2.192510 6.469440 -0.000001 -172.083000 8.643350 150.725000 -39.081100 -0.002282 -0.040193 0.002876 0.000146 63.871600 -40.985400 0.000008 0.000006 4.074500 2.888170 -95.990900 -11.754300 -0.000006 -0.000006 -0.007966 -0.087752 -20.146400
0.000000 0.000000 0.000000 0.000000 0.000000 -0.000000 -4.025100 79.916700 -405.505000 86.768400 -14.430600 -13.106800 15.735700 0.000005 -0.000001 109.437000 79.483500 -107.773000 8.984550 -0.406207 -0.000000 12.032700 6.999340 2.591020 16.377300 -0.000001 -0.000001 -3.293300 1.884410 1.476600 6.456720 -0.000001 -0.000000 -6.680160 2.183520 -5.023280 12.994200 -0.242716 4.980390 -89.611000 -1.068240 -70.018300 5.348090 -0.000007 -0.000001 -57.548800 35.252900 18.742200 24.328600 0.000019 0.000005 25.835000 34.456900 -40.578300 22.291600 -0.000001 0.000005 -8.428710 5.557690 -9.053250 12.994500 -0.242716 -4.980390 90.148400 -2.362980 -86.408500 -5.348130 -0.000001 -0.000004 -61.447400 14.145900 -60.103700 -24.328900 0.000322 -0.000009 -1.443350 0.280982 -100.861000 -22.291500 -0.000108 -0.000004 14.350200 5.593480 -10.946800 -2.192480 -6.469440 -0.000000 178.684000 -7.184980 -58.479400 39.081100 -0.000007 -0.000012 -0.274088 -0.265645 134.105000 40.985400 -0.000006 -0.000013 -9.134550 10.129900 2.839340 11.754300 -0.000000 0.000003 0.000129 0.002202 -16.488000 -2.192510 6.469440 -0.000001 179.611000 9.244050 159.535000 -39.081100 -0.002282 -0.040193 -0.103522 0.068855 57.174800 -40.985400 0.000008 0.000006 4.293040 9.547970 -94.080100 -11.754300 -0.000006 -0.000006 -0.022468 -0.180594 -23.956400
0.000000 0.000000 0.000000 0.000000 0.000000 -0.000000 -3.422940 83.340300 -394.927000 90.352100 -16.016100 -14.232200 15.735700 0.000005 -0.000001 119.520000 79.964700 -119.846000 8.984550 -0.406207 -0.000000 9.833850 9.823530 -1.499190 16.377300 -0.000001 -0.000001 -2.237640 0.612277 2.259400 6.456720 -0.000001 -0.000000 -6.625370 -0.295651 -4.323640 12.994200 -0.242716 4.980390 -88.324500 -4.252880 -68.479400 5.348090 -0.000007 -0.000001 -55.270200 32.674100 26.061900 24.328600 0.000019 0.000005 13.844600 17.602700 -39.194100 22.291600 -0.000001 0.000005 -6.509820 5.537030 -8.093910 12.994500 -0.242716 -4.980390 90.730800 -8.192100 -84.891900 -5.348130 -0.000001 -0.000004 -66.295100 10.987700 -65.373300 -24.328900 0.000322 -0.000009 -2.500130 0.853704 -108.878000 -22.291500 -0.000108 -0.000004 10.644100 5.533930 -7.899080 -2.192480 -6.469440 -0.000000 173.129000 -4.410970 -62.445100 39.081100 -0.000007 -0.000012 -0.176492 -0.108157 121.505000 40.985400 -0.000006 -0.000013 0.219714 7.673170 -13.187300 11.754300 -0.000000 0.000003 0.000321 0.005582 -16.350800 -2.192510 6.469440 -0.000001 172.418000 10.306700 168.952000 -39.081100 -0.002282 -0.040193 -0.086891 0.090252 44.969300 -40.985400 0.000008 0.000006 3.554020 12.679700 -81.435600 -11.754300 -0.000006 -0.000006 -0.104933 -0.456634 -35.656200
